<?xml version="1.0" encoding="UTF-8" standalone="no"?>
<!DOCTYPE svg PUBLIC "-//W3C//DTD SVG 1.0//EN"
 "http://www.w3.org/TR/2001/REC-SVG-20010904/DTD/svg10.dtd" [
 <!ATTLIST svg xmlns:xlink CDATA #FIXED "http://www.w3.org/1999/xlink">
]>
<!-- Generated by Graphviz version 2.16 (Fri Feb  8 12:52:03 UTC 2008)
     For user: (brucerob) Bruce G. Robertson,,, -->
<!-- Title: L0 Pages: 1 -->
<svg width="573pt" height="576pt"
 viewBox="0.00 0.00 572.67 576.00" xmlns="http://www.w3.org/2000/svg" xmlns:xlink="http://www.w3.org/1999/xlink">
<g id="graph0" class="graph" transform="scale(0.83237 0.83237) rotate(0) translate(4 688)">
<title>L0</title>
<polygon style="fill:white;stroke:white;" points="-4,4 -4,-688 684.396,-688 684.396,4 -4,4"/>
<!-- n0 -->
<g id="node1" class="node"><title>n0</title>
<polygon style="fill:none;stroke:black;" points="292,-684 238,-684 238,-648 292,-648 292,-684"/>
<text text-anchor="middle" x="265" y="-661.65" style="font-family:Times New Roman;font-size:14.00;">E</text>
</g>
<!-- n1 -->
<g id="node2" class="node"><title>n1</title>
<polygon style="fill:none;stroke:black;" points="128,-612 74,-612 74,-576 128,-576 128,-612"/>
<text text-anchor="middle" x="101" y="-589.65" style="font-family:Times New Roman;font-size:14.00;">T</text>
</g>
<!-- n0&#45;&gt;n1 -->
<g id="edge3" class="edge"><title>n0&#45;&gt;n1</title>
<path style="fill:none;stroke:black;" d="M238,-654C210,-642 167,-623 137,-610"/>
<polygon style="fill:black;stroke:black;" points="138.56,-606.863 128,-606 135.717,-613.26 138.56,-606.863"/>
</g>
<!-- n4 -->
<g id="node5" class="node"><title>n4</title>
<polygon style="fill:none;stroke:black;" points="220,-612 166,-612 166,-576 220,-576 220,-612"/>
<text text-anchor="middle" x="193" y="-589.65" style="font-family:Times New Roman;font-size:14.00;">+</text>
</g>
<!-- n0&#45;&gt;n4 -->
<g id="edge4" class="edge"><title>n0&#45;&gt;n4</title>
<path style="fill:none;stroke:black;" d="M247,-648C238,-639 228,-629 218,-619"/>
<polygon style="fill:black;stroke:black;" points="220.546,-616.596 211,-612 215.596,-621.546 220.546,-616.596"/>
</g>
<!-- n5 -->
<g id="node6" class="node"><title>n5</title>
<polygon style="fill:none;stroke:black;" points="292,-612 238,-612 238,-576 292,-576 292,-612"/>
<text text-anchor="middle" x="265" y="-589.65" style="font-family:Times New Roman;font-size:14.00;">T</text>
</g>
<!-- n0&#45;&gt;n5 -->
<g id="edge5" class="edge"><title>n0&#45;&gt;n5</title>
<path style="fill:none;stroke:black;" d="M265,-648C265,-640 265,-631 265,-622"/>
<polygon style="fill:black;stroke:black;" points="268.5,-622 265,-612 261.5,-622 268.5,-622"/>
</g>
<!-- n39 -->
<g id="node40" class="node"><title>n39</title>
<polygon style="fill:none;stroke:black;" points="364,-612 310,-612 310,-576 364,-576 364,-612"/>
<text text-anchor="middle" x="337" y="-589.65" style="font-family:Times New Roman;font-size:14.00;">+</text>
</g>
<!-- n0&#45;&gt;n39 -->
<g id="edge6" class="edge"><title>n0&#45;&gt;n39</title>
<path style="fill:none;stroke:black;" d="M283,-648C292,-639 302,-629 312,-619"/>
<polygon style="fill:black;stroke:black;" points="314.404,-621.546 319,-612 309.454,-616.596 314.404,-621.546"/>
</g>
<!-- n40 -->
<g id="node41" class="node"><title>n40</title>
<polygon style="fill:none;stroke:black;" points="475,-612 421,-612 421,-576 475,-576 475,-612"/>
<text text-anchor="middle" x="448" y="-589.65" style="font-family:Times New Roman;font-size:14.00;">T</text>
</g>
<!-- n0&#45;&gt;n40 -->
<g id="edge7" class="edge"><title>n0&#45;&gt;n40</title>
<path style="fill:none;stroke:black;" d="M292,-655C324,-642 376,-622 411,-609"/>
<polygon style="fill:black;stroke:black;" points="413.015,-611.964 421,-605 410.415,-605.464 413.015,-611.964"/>
</g>
<!-- n2 -->
<g id="node3" class="node"><title>n2</title>
<polygon style="fill:none;stroke:black;" points="107,-540 53,-540 53,-504 107,-504 107,-540"/>
<text text-anchor="middle" x="80" y="-517.65" style="font-family:Times New Roman;font-size:14.00;">F</text>
</g>
<!-- n1&#45;&gt;n2 -->
<g id="edge9" class="edge"><title>n1&#45;&gt;n2</title>
<path style="fill:none;stroke:black;" d="M96,-576C93,-568 90,-559 88,-550"/>
<polygon style="fill:black;stroke:black;" points="91.2259,-548.573 85,-540 84.5212,-550.584 91.2259,-548.573"/>
</g>
<!-- n3 -->
<g id="node4" class="node"><title>n3</title>
<polygon style="fill:none;stroke:black;" points="76.2468,-468 -0.246753,-468 -0.246753,-432 76.2468,-432 76.2468,-468"/>
<text text-anchor="middle" x="38" y="-445.65" style="font-family:Times New Roman;font-size:14.00;">IDENT : a </text>
</g>
<!-- n2&#45;&gt;n3 -->
<g id="edge11" class="edge"><title>n2&#45;&gt;n3</title>
<path style="fill:none;stroke:black;" d="M69,-504C64,-496 59,-486 53,-477"/>
<polygon style="fill:black;stroke:black;" points="55.916,-475.042 48,-468 49.7969,-478.441 55.916,-475.042"/>
</g>
<!-- n6 -->
<g id="node7" class="node"><title>n6</title>
<polygon style="fill:none;stroke:black;" points="220,-540 166,-540 166,-504 220,-504 220,-540"/>
<text text-anchor="middle" x="193" y="-517.65" style="font-family:Times New Roman;font-size:14.00;">F</text>
</g>
<!-- n5&#45;&gt;n6 -->
<g id="edge14" class="edge"><title>n5&#45;&gt;n6</title>
<path style="fill:none;stroke:black;" d="M247,-576C238,-567 228,-557 218,-547"/>
<polygon style="fill:black;stroke:black;" points="220.546,-544.596 211,-540 215.596,-549.546 220.546,-544.596"/>
</g>
<!-- n16 -->
<g id="node17" class="node"><title>n16</title>
<polygon style="fill:none;stroke:black;" points="292,-540 238,-540 238,-504 292,-504 292,-540"/>
<text text-anchor="middle" x="265" y="-517.65" style="font-family:Times New Roman;font-size:14.00;">*</text>
</g>
<!-- n5&#45;&gt;n16 -->
<g id="edge15" class="edge"><title>n5&#45;&gt;n16</title>
<path style="fill:none;stroke:black;" d="M265,-576C265,-568 265,-559 265,-550"/>
<polygon style="fill:black;stroke:black;" points="268.5,-550 265,-540 261.5,-550 268.5,-550"/>
</g>
<!-- n17 -->
<g id="node18" class="node"><title>n17</title>
<polygon style="fill:none;stroke:black;" points="400,-540 346,-540 346,-504 400,-504 400,-540"/>
<text text-anchor="middle" x="373" y="-517.65" style="font-family:Times New Roman;font-size:14.00;">F</text>
</g>
<!-- n5&#45;&gt;n17 -->
<g id="edge16" class="edge"><title>n5&#45;&gt;n17</title>
<path style="fill:none;stroke:black;" d="M292,-576C305,-567 323,-556 338,-546"/>
<polygon style="fill:black;stroke:black;" points="340.1,-548.8 346,-540 335.9,-543.2 340.1,-548.8"/>
</g>
<!-- n7 -->
<g id="node8" class="node"><title>n7</title>
<polygon style="fill:none;stroke:black;" points="148,-468 94,-468 94,-432 148,-432 148,-468"/>
<text text-anchor="middle" x="121" y="-445.65" style="font-family:Times New Roman;font-size:14.00;">(</text>
</g>
<!-- n6&#45;&gt;n7 -->
<g id="edge19" class="edge"><title>n6&#45;&gt;n7</title>
<path style="fill:none;stroke:black;" d="M175,-504C166,-495 156,-485 146,-475"/>
<polygon style="fill:black;stroke:black;" points="148.546,-472.596 139,-468 143.596,-477.546 148.546,-472.596"/>
</g>
<!-- n8 -->
<g id="node9" class="node"><title>n8</title>
<polygon style="fill:none;stroke:black;" points="220,-468 166,-468 166,-432 220,-432 220,-468"/>
<text text-anchor="middle" x="193" y="-445.65" style="font-family:Times New Roman;font-size:14.00;">E</text>
</g>
<!-- n6&#45;&gt;n8 -->
<g id="edge20" class="edge"><title>n6&#45;&gt;n8</title>
<path style="fill:none;stroke:black;" d="M193,-504C193,-496 193,-487 193,-478"/>
<polygon style="fill:black;stroke:black;" points="196.5,-478 193,-468 189.5,-478 196.5,-478"/>
</g>
<!-- n15 -->
<g id="node16" class="node"><title>n15</title>
<polygon style="fill:none;stroke:black;" points="292,-468 238,-468 238,-432 292,-432 292,-468"/>
<text text-anchor="middle" x="265" y="-445.65" style="font-family:Times New Roman;font-size:14.00;">)</text>
</g>
<!-- n6&#45;&gt;n15 -->
<g id="edge21" class="edge"><title>n6&#45;&gt;n15</title>
<path style="fill:none;stroke:black;" d="M211,-504C220,-495 230,-485 240,-475"/>
<polygon style="fill:black;stroke:black;" points="242.404,-477.546 247,-468 237.454,-472.596 242.404,-477.546"/>
</g>
<!-- n9 -->
<g id="node10" class="node"><title>n9</title>
<polygon style="fill:none;stroke:black;" points="196,-396 142,-396 142,-360 196,-360 196,-396"/>
<text text-anchor="middle" x="169" y="-373.65" style="font-family:Times New Roman;font-size:14.00;">T</text>
</g>
<!-- n8&#45;&gt;n9 -->
<g id="edge23" class="edge"><title>n8&#45;&gt;n9</title>
<path style="fill:none;stroke:black;" d="M187,-432C184,-424 181,-414 178,-406"/>
<polygon style="fill:black;stroke:black;" points="181.226,-404.573 175,-396 174.521,-406.584 181.226,-404.573"/>
</g>
<!-- n10 -->
<g id="node11" class="node"><title>n10</title>
<polygon style="fill:none;stroke:black;" points="88,-324 34,-324 34,-288 88,-288 88,-324"/>
<text text-anchor="middle" x="61" y="-301.65" style="font-family:Times New Roman;font-size:14.00;">F</text>
</g>
<!-- n9&#45;&gt;n10 -->
<g id="edge26" class="edge"><title>n9&#45;&gt;n10</title>
<path style="fill:none;stroke:black;" d="M142,-360C128,-351 111,-340 97,-330"/>
<polygon style="fill:black;stroke:black;" points="98.262,-326.635 88,-324 94.3791,-332.459 98.262,-326.635"/>
</g>
<!-- n12 -->
<g id="node13" class="node"><title>n12</title>
<polygon style="fill:none;stroke:black;" points="160,-324 106,-324 106,-288 160,-288 160,-324"/>
<text text-anchor="middle" x="133" y="-301.65" style="font-family:Times New Roman;font-size:14.00;">*</text>
</g>
<!-- n9&#45;&gt;n12 -->
<g id="edge27" class="edge"><title>n9&#45;&gt;n12</title>
<path style="fill:none;stroke:black;" d="M160,-360C156,-352 151,-342 146,-333"/>
<polygon style="fill:black;stroke:black;" points="149.26,-331.717 142,-324 142.863,-334.56 149.26,-331.717"/>
</g>
<!-- n13 -->
<g id="node14" class="node"><title>n13</title>
<polygon style="fill:none;stroke:black;" points="232,-324 178,-324 178,-288 232,-288 232,-324"/>
<text text-anchor="middle" x="205" y="-301.65" style="font-family:Times New Roman;font-size:14.00;">F</text>
</g>
<!-- n9&#45;&gt;n13 -->
<g id="edge28" class="edge"><title>n9&#45;&gt;n13</title>
<path style="fill:none;stroke:black;" d="M178,-360C182,-352 187,-342 192,-333"/>
<polygon style="fill:black;stroke:black;" points="195.137,-334.56 196,-324 188.74,-331.717 195.137,-334.56"/>
</g>
<!-- n11 -->
<g id="node12" class="node"><title>n11</title>
<polygon style="fill:none;stroke:black;" points="100,-252 22,-252 22,-216 100,-216 100,-252"/>
<text text-anchor="middle" x="61" y="-229.65" style="font-family:Times New Roman;font-size:14.00;">IDENT : b </text>
</g>
<!-- n10&#45;&gt;n11 -->
<g id="edge30" class="edge"><title>n10&#45;&gt;n11</title>
<path style="fill:none;stroke:black;" d="M61,-288C61,-280 61,-271 61,-262"/>
<polygon style="fill:black;stroke:black;" points="64.5001,-262 61,-252 57.5001,-262 64.5001,-262"/>
</g>
<!-- n14 -->
<g id="node15" class="node"><title>n14</title>
<polygon style="fill:none;stroke:black;" points="238.125,-252 159.875,-252 159.875,-216 238.125,-216 238.125,-252"/>
<text text-anchor="middle" x="199" y="-229.65" style="font-family:Times New Roman;font-size:14.00;">IDENT : c </text>
</g>
<!-- n13&#45;&gt;n14 -->
<g id="edge32" class="edge"><title>n13&#45;&gt;n14</title>
<path style="fill:none;stroke:black;" d="M203,-288C202,-280 202,-271 201,-262"/>
<polygon style="fill:black;stroke:black;" points="204.5,-262 201,-252 197.5,-262 204.5,-262"/>
</g>
<!-- n18 -->
<g id="node19" class="node"><title>n18</title>
<polygon style="fill:none;stroke:black;" points="364,-468 310,-468 310,-432 364,-432 364,-468"/>
<text text-anchor="middle" x="337" y="-445.65" style="font-family:Times New Roman;font-size:14.00;">(</text>
</g>
<!-- n17&#45;&gt;n18 -->
<g id="edge35" class="edge"><title>n17&#45;&gt;n18</title>
<path style="fill:none;stroke:black;" d="M364,-504C360,-496 355,-486 350,-477"/>
<polygon style="fill:black;stroke:black;" points="353.26,-475.717 346,-468 346.863,-478.56 353.26,-475.717"/>
</g>
<!-- n19 -->
<g id="node20" class="node"><title>n19</title>
<polygon style="fill:none;stroke:black;" points="436,-468 382,-468 382,-432 436,-432 436,-468"/>
<text text-anchor="middle" x="409" y="-445.65" style="font-family:Times New Roman;font-size:14.00;">E</text>
</g>
<!-- n17&#45;&gt;n19 -->
<g id="edge36" class="edge"><title>n17&#45;&gt;n19</title>
<path style="fill:none;stroke:black;" d="M382,-504C386,-496 391,-486 396,-477"/>
<polygon style="fill:black;stroke:black;" points="399.137,-478.56 400,-468 392.74,-475.717 399.137,-478.56"/>
</g>
<!-- n38 -->
<g id="node39" class="node"><title>n38</title>
<polygon style="fill:none;stroke:black;" points="508,-468 454,-468 454,-432 508,-432 508,-468"/>
<text text-anchor="middle" x="481" y="-445.65" style="font-family:Times New Roman;font-size:14.00;">)</text>
</g>
<!-- n17&#45;&gt;n38 -->
<g id="edge37" class="edge"><title>n17&#45;&gt;n38</title>
<path style="fill:none;stroke:black;" d="M400,-504C413,-495 431,-484 446,-474"/>
<polygon style="fill:black;stroke:black;" points="448.1,-476.8 454,-468 443.9,-471.2 448.1,-476.8"/>
</g>
<!-- n20 -->
<g id="node21" class="node"><title>n20</title>
<polygon style="fill:none;stroke:black;" points="388,-396 334,-396 334,-360 388,-360 388,-396"/>
<text text-anchor="middle" x="361" y="-373.65" style="font-family:Times New Roman;font-size:14.00;">T</text>
</g>
<!-- n19&#45;&gt;n20 -->
<g id="edge40" class="edge"><title>n19&#45;&gt;n20</title>
<path style="fill:none;stroke:black;" d="M397,-432C392,-424 385,-414 379,-404"/>
<polygon style="fill:black;stroke:black;" points="381.8,-401.9 373,-396 376.2,-406.1 381.8,-401.9"/>
</g>
<!-- n26 -->
<g id="node27" class="node"><title>n26</title>
<polygon style="fill:none;stroke:black;" points="460,-396 406,-396 406,-360 460,-360 460,-396"/>
<text text-anchor="middle" x="433" y="-373.65" style="font-family:Times New Roman;font-size:14.00;">+</text>
</g>
<!-- n19&#45;&gt;n26 -->
<g id="edge41" class="edge"><title>n19&#45;&gt;n26</title>
<path style="fill:none;stroke:black;" d="M415,-432C418,-424 421,-414 424,-406"/>
<polygon style="fill:black;stroke:black;" points="427.479,-406.584 427,-396 420.774,-404.573 427.479,-406.584"/>
</g>
<!-- n27 -->
<g id="node28" class="node"><title>n27</title>
<polygon style="fill:none;stroke:black;" points="532,-396 478,-396 478,-360 532,-360 532,-396"/>
<text text-anchor="middle" x="505" y="-373.65" style="font-family:Times New Roman;font-size:14.00;">T</text>
</g>
<!-- n19&#45;&gt;n27 -->
<g id="edge42" class="edge"><title>n19&#45;&gt;n27</title>
<path style="fill:none;stroke:black;" d="M433,-432C445,-423 460,-412 473,-402"/>
<polygon style="fill:black;stroke:black;" points="475.1,-404.8 481,-396 470.9,-399.2 475.1,-404.8"/>
</g>
<!-- n21 -->
<g id="node22" class="node"><title>n21</title>
<polygon style="fill:none;stroke:black;" points="316,-324 262,-324 262,-288 316,-288 316,-324"/>
<text text-anchor="middle" x="289" y="-301.65" style="font-family:Times New Roman;font-size:14.00;">F</text>
</g>
<!-- n20&#45;&gt;n21 -->
<g id="edge45" class="edge"><title>n20&#45;&gt;n21</title>
<path style="fill:none;stroke:black;" d="M343,-360C334,-351 324,-341 314,-331"/>
<polygon style="fill:black;stroke:black;" points="316.546,-328.596 307,-324 311.596,-333.546 316.546,-328.596"/>
</g>
<!-- n23 -->
<g id="node24" class="node"><title>n23</title>
<polygon style="fill:none;stroke:black;" points="388,-324 334,-324 334,-288 388,-288 388,-324"/>
<text text-anchor="middle" x="361" y="-301.65" style="font-family:Times New Roman;font-size:14.00;">*</text>
</g>
<!-- n20&#45;&gt;n23 -->
<g id="edge46" class="edge"><title>n20&#45;&gt;n23</title>
<path style="fill:none;stroke:black;" d="M361,-360C361,-352 361,-343 361,-334"/>
<polygon style="fill:black;stroke:black;" points="364.5,-334 361,-324 357.5,-334 364.5,-334"/>
</g>
<!-- n24 -->
<g id="node25" class="node"><title>n24</title>
<polygon style="fill:none;stroke:black;" points="460,-324 406,-324 406,-288 460,-288 460,-324"/>
<text text-anchor="middle" x="433" y="-301.65" style="font-family:Times New Roman;font-size:14.00;">F</text>
</g>
<!-- n20&#45;&gt;n24 -->
<g id="edge47" class="edge"><title>n20&#45;&gt;n24</title>
<path style="fill:none;stroke:black;" d="M379,-360C388,-351 398,-341 408,-331"/>
<polygon style="fill:black;stroke:black;" points="410.404,-333.546 415,-324 405.454,-328.596 410.404,-333.546"/>
</g>
<!-- n22 -->
<g id="node23" class="node"><title>n22</title>
<polygon style="fill:none;stroke:black;" points="334,-252 256,-252 256,-216 334,-216 334,-252"/>
<text text-anchor="middle" x="295" y="-229.65" style="font-family:Times New Roman;font-size:14.00;">IDENT : d </text>
</g>
<!-- n21&#45;&gt;n22 -->
<g id="edge49" class="edge"><title>n21&#45;&gt;n22</title>
<path style="fill:none;stroke:black;" d="M291,-288C292,-280 292,-271 293,-262"/>
<polygon style="fill:black;stroke:black;" points="296.5,-262 293,-252 289.5,-262 296.5,-262"/>
</g>
<!-- n25 -->
<g id="node26" class="node"><title>n25</title>
<polygon style="fill:none;stroke:black;" points="452.247,-252 375.753,-252 375.753,-216 452.247,-216 452.247,-252"/>
<text text-anchor="middle" x="414" y="-229.65" style="font-family:Times New Roman;font-size:14.00;">IDENT : e </text>
</g>
<!-- n24&#45;&gt;n25 -->
<g id="edge51" class="edge"><title>n24&#45;&gt;n25</title>
<path style="fill:none;stroke:black;" d="M428,-288C426,-280 424,-271 422,-262"/>
<polygon style="fill:black;stroke:black;" points="425.226,-260.573 419,-252 418.521,-262.584 425.226,-260.573"/>
</g>
<!-- n28 -->
<g id="node29" class="node"><title>n28</title>
<polygon style="fill:none;stroke:black;" points="549,-324 495,-324 495,-288 549,-288 549,-324"/>
<text text-anchor="middle" x="522" y="-301.65" style="font-family:Times New Roman;font-size:14.00;">F</text>
</g>
<!-- n27&#45;&gt;n28 -->
<g id="edge53" class="edge"><title>n27&#45;&gt;n28</title>
<path style="fill:none;stroke:black;" d="M509,-360C511,-352 513,-343 515,-334"/>
<polygon style="fill:black;stroke:black;" points="518.479,-334.584 518,-324 511.774,-332.573 518.479,-334.584"/>
</g>
<!-- n29 -->
<g id="node30" class="node"><title>n29</title>
<polygon style="fill:none;stroke:black;" points="524,-252 470,-252 470,-216 524,-216 524,-252"/>
<text text-anchor="middle" x="497" y="-229.65" style="font-family:Times New Roman;font-size:14.00;">(</text>
</g>
<!-- n28&#45;&gt;n29 -->
<g id="edge56" class="edge"><title>n28&#45;&gt;n29</title>
<path style="fill:none;stroke:black;" d="M516,-288C513,-280 510,-270 506,-262"/>
<polygon style="fill:black;stroke:black;" points="509.226,-260.573 503,-252 502.521,-262.584 509.226,-260.573"/>
</g>
<!-- n30 -->
<g id="node31" class="node"><title>n30</title>
<polygon style="fill:none;stroke:black;" points="596,-252 542,-252 542,-216 596,-216 596,-252"/>
<text text-anchor="middle" x="569" y="-229.65" style="font-family:Times New Roman;font-size:14.00;">E</text>
</g>
<!-- n28&#45;&gt;n30 -->
<g id="edge57" class="edge"><title>n28&#45;&gt;n30</title>
<path style="fill:none;stroke:black;" d="M534,-288C539,-280 546,-270 552,-260"/>
<polygon style="fill:black;stroke:black;" points="554.668,-262.335 557,-252 548.732,-258.625 554.668,-262.335"/>
</g>
<!-- n37 -->
<g id="node38" class="node"><title>n37</title>
<polygon style="fill:none;stroke:black;" points="668,-252 614,-252 614,-216 668,-216 668,-252"/>
<text text-anchor="middle" x="641" y="-229.65" style="font-family:Times New Roman;font-size:14.00;">)</text>
</g>
<!-- n28&#45;&gt;n37 -->
<g id="edge58" class="edge"><title>n28&#45;&gt;n37</title>
<path style="fill:none;stroke:black;" d="M549,-290C565,-280 587,-266 605,-255"/>
<polygon style="fill:black;stroke:black;" points="606.958,-257.916 614,-250 603.559,-251.797 606.958,-257.916"/>
</g>
<!-- n31 -->
<g id="node32" class="node"><title>n31</title>
<polygon style="fill:none;stroke:black;" points="596,-180 542,-180 542,-144 596,-144 596,-180"/>
<text text-anchor="middle" x="569" y="-157.65" style="font-family:Times New Roman;font-size:14.00;">T</text>
</g>
<!-- n30&#45;&gt;n31 -->
<g id="edge60" class="edge"><title>n30&#45;&gt;n31</title>
<path style="fill:none;stroke:black;" d="M569,-216C569,-208 569,-199 569,-190"/>
<polygon style="fill:black;stroke:black;" points="572.5,-190 569,-180 565.5,-190 572.5,-190"/>
</g>
<!-- n32 -->
<g id="node33" class="node"><title>n32</title>
<polygon style="fill:none;stroke:black;" points="524,-108 470,-108 470,-72 524,-72 524,-108"/>
<text text-anchor="middle" x="497" y="-85.65" style="font-family:Times New Roman;font-size:14.00;">F</text>
</g>
<!-- n31&#45;&gt;n32 -->
<g id="edge63" class="edge"><title>n31&#45;&gt;n32</title>
<path style="fill:none;stroke:black;" d="M551,-144C542,-135 532,-125 522,-115"/>
<polygon style="fill:black;stroke:black;" points="524.546,-112.596 515,-108 519.596,-117.546 524.546,-112.596"/>
</g>
<!-- n34 -->
<g id="node35" class="node"><title>n34</title>
<polygon style="fill:none;stroke:black;" points="596,-108 542,-108 542,-72 596,-72 596,-108"/>
<text text-anchor="middle" x="569" y="-85.65" style="font-family:Times New Roman;font-size:14.00;">*</text>
</g>
<!-- n31&#45;&gt;n34 -->
<g id="edge64" class="edge"><title>n31&#45;&gt;n34</title>
<path style="fill:none;stroke:black;" d="M569,-144C569,-136 569,-127 569,-118"/>
<polygon style="fill:black;stroke:black;" points="572.5,-118 569,-108 565.5,-118 572.5,-118"/>
</g>
<!-- n35 -->
<g id="node36" class="node"><title>n35</title>
<polygon style="fill:none;stroke:black;" points="668,-108 614,-108 614,-72 668,-72 668,-108"/>
<text text-anchor="middle" x="641" y="-85.65" style="font-family:Times New Roman;font-size:14.00;">F</text>
</g>
<!-- n31&#45;&gt;n35 -->
<g id="edge65" class="edge"><title>n31&#45;&gt;n35</title>
<path style="fill:none;stroke:black;" d="M587,-144C596,-135 606,-125 616,-115"/>
<polygon style="fill:black;stroke:black;" points="618.404,-117.546 623,-108 613.454,-112.596 618.404,-117.546"/>
</g>
<!-- n33 -->
<g id="node34" class="node"><title>n33</title>
<polygon style="fill:none;stroke:black;" points="535.247,-36 458.753,-36 458.753,-7.10543e-15 535.247,-0 535.247,-36"/>
<text text-anchor="middle" x="497" y="-13.65" style="font-family:Times New Roman;font-size:14.00;">IDENT : a </text>
</g>
<!-- n32&#45;&gt;n33 -->
<g id="edge67" class="edge"><title>n32&#45;&gt;n33</title>
<path style="fill:none;stroke:black;" d="M497,-72C497,-64 497,-55 497,-46"/>
<polygon style="fill:black;stroke:black;" points="500.5,-46 497,-36 493.5,-46 500.5,-46"/>
</g>
<!-- n36 -->
<g id="node37" class="node"><title>n36</title>
<polygon style="fill:none;stroke:black;" points="680,-36 602,-36 602,-7.10543e-15 680,-0 680,-36"/>
<text text-anchor="middle" x="641" y="-13.65" style="font-family:Times New Roman;font-size:14.00;">IDENT : b </text>
</g>
<!-- n35&#45;&gt;n36 -->
<g id="edge69" class="edge"><title>n35&#45;&gt;n36</title>
<path style="fill:none;stroke:black;" d="M641,-72C641,-64 641,-55 641,-46"/>
<polygon style="fill:black;stroke:black;" points="644.5,-46 641,-36 637.5,-46 644.5,-46"/>
</g>
<!-- n41 -->
<g id="node42" class="node"><title>n41</title>
<polygon style="fill:none;stroke:black;" points="553,-540 499,-540 499,-504 553,-504 553,-540"/>
<text text-anchor="middle" x="526" y="-517.65" style="font-family:Times New Roman;font-size:14.00;">F</text>
</g>
<!-- n40&#45;&gt;n41 -->
<g id="edge71" class="edge"><title>n40&#45;&gt;n41</title>
<path style="fill:none;stroke:black;" d="M468,-576C478,-567 489,-557 499,-547"/>
<polygon style="fill:black;stroke:black;" points="501.779,-549.219 507,-540 497.169,-543.951 501.779,-549.219"/>
</g>
<!-- n42 -->
<g id="node43" class="node"><title>n42</title>
<polygon style="fill:none;stroke:black;" points="604,-468 526,-468 526,-432 604,-432 604,-468"/>
<text text-anchor="middle" x="565" y="-445.65" style="font-family:Times New Roman;font-size:14.00;">IDENT : q </text>
</g>
<!-- n41&#45;&gt;n42 -->
<g id="edge73" class="edge"><title>n41&#45;&gt;n42</title>
<path style="fill:none;stroke:black;" d="M536,-504C540,-496 545,-486 550,-477"/>
<polygon style="fill:black;stroke:black;" points="553.203,-478.441 555,-468 547.084,-475.042 553.203,-478.441"/>
</g>
</g>
</svg>
